<?xml version="1.0" standalone="no"?>
<!DOCTYPE svg PUBLIC "-//W3C//DTD SVG 20010904//EN"
 "http://www.w3.org/TR/2001/REC-SVG-20010904/DTD/svg10.dtd">
<svg version="1.0" xmlns="http://www.w3.org/2000/svg"
 width="16px" height="16px" viewBox="0 0 25.000000 25.000000"
 preserveAspectRatio="xMidYMid meet">

<g transform="translate(0.000000,25.000000) scale(0.100000,-0.100000)"
fill="#ffffff" stroke="none">
<path d="M71 216 c-47 -26 -65 -93 -36 -132 8 -10 15 -30 15 -43 0 -20 2 -22
16 -10 9 7 30 12 46 10 59 -6 118 41 118 93 0 72 -92 119 -159 82z m120 -25
c38 -38 38 -74 -1 -113 -25 -24 -37 -29 -70 -27 -21 2 -42 0 -46 -4 -10 -10
-44 59 -44 89 0 39 50 84 95 84 27 0 44 -8 66 -29z"/>
</g>
</svg>
