<?xml version="1.0" standalone="no"?>
<!DOCTYPE svg PUBLIC "-//W3C//DTD SVG 20010904//EN"
 "http://www.w3.org/TR/2001/REC-SVG-20010904/DTD/svg10.dtd">
<svg version="1.0" xmlns="http://www.w3.org/2000/svg"
 width="512.000000pt" height="512.000000pt" viewBox="0 0 512.000000 512.000000"
 preserveAspectRatio="xMidYMid meet">

<g transform="translate(0.000000,512.000000) scale(0.100000,-0.100000)"
fill="rgba(255, 255, 255, 0.7)" stroke="none">
<path d="M358 5110 c-21 -4 -58 -20 -84 -36 -99 -62 -137 -199 -85 -304 16
-32 325 -347 1105 -1127 l1082 -1082 -1064 -1063 c-585 -585 -1079 -1084
-1098 -1110 -74 -100 -66 -226 21 -313 72 -73 181 -92 270 -48 44 22 2402
2380 2428 2428 30 55 30 155 0 210 -13 24 -502 519 -1215 1231 -938 937 -1200
1194 -1228 1202 -55 16 -92 19 -132 12z"/>
<path d="M2330 5105 c-129 -41 -197 -176 -155 -306 17 -52 67 -103 1109 -1146
l1091 -1093 -1091 -1093 c-1042 -1043 -1092 -1094 -1109 -1146 -45 -138 36
-280 178 -311 45 -11 63 -10 113 4 l59 17 1193 1192 c728 728 1202 1208 1214
1232 30 55 30 155 0 210 -25 49 -2382 2406 -2428 2428 -47 24 -122 29 -174 12z"/>
</g>
</svg>
