<?xml version="1.0" standalone="no"?>
<!DOCTYPE svg PUBLIC "-//W3C//DTD SVG 20010904//EN"
 "http://www.w3.org/TR/2001/REC-SVG-20010904/DTD/svg10.dtd">
<svg version="1.0" xmlns="http://www.w3.org/2000/svg"
 width="512.000000pt" height="512.000000pt" viewBox="0 0 512.000000 512.000000"
 preserveAspectRatio="xMidYMid meet">

<g transform="translate(0.000000,512.000000) scale(0.100000,-0.100000)"
fill="rgba(255, 255, 255, 0.7)" stroke="none">
<path d="M2665 5111 c-16 -4 -43 -15 -60 -24 -43 -23 -2399 -2385 -2421 -2427
-26 -50 -24 -152 4 -205 12 -24 483 -502 1214 -1232 l1193 -1192 59 -17 c50
-14 68 -15 112 -5 142 32 224 174 179 312 -17 52 -67 103 -1109 1147 l-1091
1092 1091 1093 c1042 1043 1092 1094 1109 1146 43 132 -27 267 -159 306 -53
16 -74 17 -121 6z"/>
<path d="M4690 5113 c-83 -13 -69 1 -1289 -1217 -1277 -1275 -1241 -1236
-1241 -1336 0 -100 -36 -61 1236 -1332 878 -876 1199 -1192 1228 -1203 106
-44 234 -3 292 93 50 82 53 152 12 237 -13 27 -385 405 -1102 1123 l-1081
1083 1081 1082 c722 722 1089 1095 1102 1122 41 86 38 155 -12 237 -46 76
-142 123 -226 111z"/>
</g>
</svg>
