<?xml version="1.0" standalone="no"?>
<!DOCTYPE svg PUBLIC "-//W3C//DTD SVG 20010904//EN"
 "http://www.w3.org/TR/2001/REC-SVG-20010904/DTD/svg10.dtd">
<svg version="1.0" xmlns="http://www.w3.org/2000/svg"
 width="16px" height="16px" viewBox="0 0 50.000000 50.000000"
 preserveAspectRatio="xMidYMid meet">

<g transform="translate(0.000000,50.000000) scale(0.100000,-0.100000)"
fill="#000000" stroke="none">
<path d="M84 376 c-29 -29 -34 -41 -34 -82 0 -67 35 -121 118 -183 38 -28 75
-51 82 -51 7 0 44 23 82 51 83 62 118 116 118 183 0 41 -5 53 -34 82 -28 28
-41 34 -78 34 -24 0 -54 -7 -66 -16 -20 -14 -24 -14 -44 0 -12 9 -42 16 -66
16 -37 0 -50 -6 -78 -34z"/>
</g>
</svg>
