<?xml version="1.0" standalone="no"?>
<!DOCTYPE svg PUBLIC "-//W3C//DTD SVG 20010904//EN"
 "http://www.w3.org/TR/2001/REC-SVG-20010904/DTD/svg10.dtd">
<svg version="1.0" xmlns="http://www.w3.org/2000/svg"
 width="16px" height="16px" viewBox="0 0 24.000000 24.000000"
 preserveAspectRatio="xMidYMid meet">

<g transform="translate(0.000000,24.000000) scale(0.100000,-0.100000)"
fill="#737373" stroke="none">
<path d="M152 208 c-17 -17 25 -63 45 -47 17 15 16 24 -3 43 -19 19 -26 20
-42 4z"/>
<path d="M73 127 c-29 -28 -55 -65 -59 -81 -7 -28 -6 -29 22 -22 16 4 53 31
82 60 l53 52 -24 22 -23 22 -51 -53z"/>
<path d="M90 30 c0 -6 32 -10 75 -10 43 0 75 4 75 10 0 6 -32 10 -75 10 -43 0
-75 -4 -75 -10z"/>
</g>
</svg>
