<svg width="210" height="54" viewBox="0 0 210 54" fill="none" xmlns="http://www.w3.org/2000/svg">
<path d="M100.565 36.3101C100.298 35.6075 99.9461 34.6831 91.1255 33.1596V26.4519C91.1255 23.3088 90.5065 20.5133 89.2966 18.132C88.0727 15.7359 86.3353 13.8574 84.1337 12.541C81.9391 11.232 79.3435 10.5664 76.4244 10.5664C76.3119 10.5664 76.2063 10.5738 76.1008 10.5738L75.2497 10.596V18.7976L76.1219 18.7532C76.2204 18.7458 76.3259 18.7384 76.4314 18.7384C78.4854 18.7384 80.075 19.404 81.2919 20.7648C82.5229 22.1403 83.1137 23.9375 83.1137 26.2448V37.2493C73.7656 37.1976 61.864 36.5911 51.9602 35.2082V26.5555C51.9602 23.7748 52.5018 21.3195 53.578 19.2561C54.6401 17.215 56.1454 15.6101 58.0586 14.486C59.986 13.3545 62.2861 12.7851 64.9027 12.7851C64.9871 12.7851 65.0715 12.7851 65.163 12.7924L66.0563 12.822L66.1055 10.6182L65.2333 10.5886C65.1208 10.5812 65.0153 10.5812 64.9027 10.5812C61.9203 10.5812 59.2685 11.2468 57.0246 12.5706C54.7597 13.9018 52.9801 15.795 51.721 18.2133C50.476 20.6021 49.8429 23.4124 49.8429 26.5702V31.7545C42.8582 32.4201 42.8089 33.5442 42.7738 34.3059C42.7175 35.7111 44.3212 36.2362 47.7116 36.8204C48.3799 36.9387 49.0973 37.0497 49.8359 37.1606V38.0111C49.8359 41.1616 50.469 43.9792 51.714 46.368C52.966 48.7863 54.7527 50.6795 57.0176 52.0107C59.2615 53.3271 61.9133 54.0001 64.8957 54.0001C65.0082 54.0001 65.1137 54.0001 65.2192 53.9927L66.0915 53.9631L66.0422 51.7593L65.1419 51.7889C65.0575 51.7889 64.9731 51.7963 64.8886 51.7963C62.272 51.7963 59.9649 51.2194 58.0446 50.0879C56.1384 48.9638 54.6261 47.359 53.5639 45.3178C52.4877 43.2545 51.9461 40.7992 51.9461 38.0185V37.4342C60.6823 38.5879 72.9988 39.4014 83.0364 39.4902C82.8605 41.2281 82.2837 42.6407 81.2779 43.7648C80.061 45.1255 78.4713 45.7911 76.4174 45.7911C76.3119 45.7911 76.2134 45.7837 76.1079 45.7763L75.2357 45.732V53.9336L76.0868 53.9558C76.1923 53.9632 76.3048 53.9631 76.4103 53.9631C79.3365 53.9631 81.932 53.2976 84.1196 51.9885C86.3212 50.6722 88.0586 48.7937 89.2825 46.3976C90.3306 44.349 90.9285 41.9898 91.0762 39.3644C96.0914 39.1426 99.6366 38.6101 100.347 37.6709C100.664 37.2937 100.741 36.776 100.565 36.3101ZM48.0493 34.6165C47.578 34.5352 47.17 34.4612 46.8183 34.3873C47.7187 34.232 48.7808 34.0841 49.8289 33.9731V34.905C49.231 34.8088 48.6331 34.7127 48.0493 34.6165ZM91.1184 37.1458V35.4079C94.1008 35.9329 95.9226 36.3619 97.034 36.6799C95.6764 36.887 93.6366 37.0423 91.1184 37.1458Z" fill="white"/>
<path d="M72.0422 30.4824H68.6448V34.0544H72.0422V30.4824Z" fill="white"/>
<path d="M37.435 0.0947266V3.67414H38.0821V41.65H36.7738V24.6182L29.4303 45.8358L29.3881 45.9616V53.9857H36.7738V43.8686H40.1923V3.67414H40.8395V0.0947266H37.435Z" fill="white"/>
<path d="M29.5986 10.5736L18.5623 42.4482L7.52597 10.5736H5.06407V3.67366H5.70416V0.0942383H2.30674V3.67366H2.95387V10.5736H0.0488281L14.9117 53.4971L15.0805 53.9852H22.0512L37.0758 10.5736H29.5986Z" fill="white"/>
<path d="M2.1102 21.0605H0V53.9853H2.1102V21.0605Z" fill="white"/>
<path d="M168.45 3.58521H169.09V20.5948H167.859V10.4926H160.474V53.9041H167.859V22.8283H171.2V3.58521H171.848V0.0131836H168.45V3.58521Z" fill="white"/>
<path d="M180.113 10.5737L195.137 53.9853H202.614L187.59 10.5737H180.113Z" fill="white"/>
<path d="M210 10.5737H207.89V53.9779H210V10.5737Z" fill="white"/>
<path d="M180.485 41.6125H179.177V3.67366H179.824V0.0942383H176.42V3.67366H177.067V43.8312H180.485V53.9852H187.871V45.9315L180.485 24.5141V41.6125Z" fill="white"/>
<path d="M128.863 53.9557L113.845 10.5664H106.368L113.507 31.1924H106.051V30.512H102.647V34.0841H106.051V33.4111H114.274L121.393 53.9779H128.856H128.87H131.099L146.131 10.5664H143.88L128.863 53.9557Z" fill="white"/>
<path d="M149.979 10.4554L149.944 8.27369C149.93 7.29748 149.423 6.40263 148.614 5.91453L146.814 4.82739C146.286 4.50938 146.49 3.6663 147.102 3.65151L149.177 3.60713C150.098 3.58495 150.95 3.05987 151.414 2.21678L152.455 0.316141C152.757 -0.238521 153.559 -0.0166561 153.573 0.619356L153.615 2.80842C153.637 3.78463 154.136 4.67208 154.938 5.16019L156.746 6.25472C157.273 6.57273 157.062 7.41581 156.457 7.4306L154.375 7.47498C153.454 7.49716 152.603 8.02224 152.138 8.86533L151.104 10.7586C150.795 11.3132 149.986 11.0914 149.979 10.4554Z" fill="white"/>
</svg>
